<?xml version="1.0" standalone="no"?>
<!DOCTYPE svg PUBLIC "-//W3C//DTD SVG 20010904//EN"
 "http://www.w3.org/TR/2001/REC-SVG-20010904/DTD/svg10.dtd">
<svg version="1.0" xmlns="http://www.w3.org/2000/svg"
 width="184.000000pt" height="186.000000pt" viewBox="0 0 184.000000 186.000000"
 preserveAspectRatio="xMidYMid meet">

<g transform="translate(0.000000,186.000000) scale(0.100000,-0.100000)"
fill="#7e22ce" stroke="none">
<path d="M597 1576 l88 -86 114 0 c71 0 136 -6 175 -16 184 -48 327 -177 393
-354 25 -67 28 -88 28 -195 -1 -106 -4 -128 -28 -189 -53 -134 -157 -248 -281
-309 -96 -47 -159 -57 -360 -57 l-186 0 0 407 0 408 193 -193 192 -192 159
159 c119 119 157 163 152 176 -10 27 -80 114 -91 115 -6 0 -55 -45 -110 -100
-55 -55 -104 -100 -110 -100 -5 0 -133 123 -282 272 l-273 273 0 -698 0 -699
313 4 c307 4 313 5 384 30 130 47 193 87 289 183 76 76 97 104 136 185 60 122
78 200 78 330 0 130 -18 208 -78 330 -39 81 -60 109 -136 185 -97 96 -160 136
-289 182 -68 25 -84 27 -315 31 l-242 4 87 -86z"/>
</g>
</svg>
